<svg width="1200" height="500" viewBox="0 0 1200 500" xmlns="http://www.w3.org/2000/svg">
<rect x="0" y="0" width="1200" height="500" opacity="1" fill="#222222" stroke="none"/>
<line opacity="0.4" stroke="#404040" stroke-width="1" x1="100" y1="409" x2="1159" y2="409"/>
<line opacity="0.4" stroke="#404040" stroke-width="1" x1="100" y1="399" x2="1159" y2="399"/>
<line opacity="0.4" stroke="#404040" stroke-width="1" x1="100" y1="388" x2="1159" y2="388"/>
<line opacity="0.4" stroke="#404040" stroke-width="1" x1="100" y1="378" x2="1159" y2="378"/>
<line opacity="0.4" stroke="#404040" stroke-width="1" x1="100" y1="367" x2="1159" y2="367"/>
<line opacity="0.4" stroke="#404040" stroke-width="1" x1="100" y1="357" x2="1159" y2="357"/>
<line opacity="0.4" stroke="#404040" stroke-width="1" x1="100" y1="346" x2="1159" y2="346"/>
<line opacity="0.4" stroke="#404040" stroke-width="1" x1="100" y1="336" x2="1159" y2="336"/>
<line opacity="0.4" stroke="#404040" stroke-width="1" x1="100" y1="325" x2="1159" y2="325"/>
<line opacity="0.4" stroke="#404040" stroke-width="1" x1="100" y1="315" x2="1159" y2="315"/>
<line opacity="0.4" stroke="#404040" stroke-width="1" x1="100" y1="304" x2="1159" y2="304"/>
<line opacity="0.4" stroke="#404040" stroke-width="1" x1="100" y1="294" x2="1159" y2="294"/>
<line opacity="0.4" stroke="#404040" stroke-width="1" x1="100" y1="283" x2="1159" y2="283"/>
<line opacity="0.4" stroke="#404040" stroke-width="1" x1="100" y1="273" x2="1159" y2="273"/>
<line opacity="0.4" stroke="#404040" stroke-width="1" x1="100" y1="262" x2="1159" y2="262"/>
<line opacity="0.4" stroke="#404040" stroke-width="1" x1="100" y1="252" x2="1159" y2="252"/>
<line opacity="0.4" stroke="#404040" stroke-width="1" x1="100" y1="241" x2="1159" y2="241"/>
<line opacity="0.4" stroke="#404040" stroke-width="1" x1="100" y1="231" x2="1159" y2="231"/>
<line opacity="0.4" stroke="#404040" stroke-width="1" x1="100" y1="220" x2="1159" y2="220"/>
<line opacity="0.4" stroke="#404040" stroke-width="1" x1="100" y1="210" x2="1159" y2="210"/>
<line opacity="0.4" stroke="#404040" stroke-width="1" x1="100" y1="199" x2="1159" y2="199"/>
<line opacity="0.4" stroke="#404040" stroke-width="1" x1="100" y1="189" x2="1159" y2="189"/>
<line opacity="0.4" stroke="#404040" stroke-width="1" x1="100" y1="178" x2="1159" y2="178"/>
<line opacity="0.4" stroke="#404040" stroke-width="1" x1="100" y1="168" x2="1159" y2="168"/>
<line opacity="0.4" stroke="#404040" stroke-width="1" x1="100" y1="157" x2="1159" y2="157"/>
<line opacity="0.4" stroke="#404040" stroke-width="1" x1="100" y1="147" x2="1159" y2="147"/>
<line opacity="0.4" stroke="#404040" stroke-width="1" x1="100" y1="136" x2="1159" y2="136"/>
<line opacity="0.4" stroke="#404040" stroke-width="1" x1="100" y1="126" x2="1159" y2="126"/>
<line opacity="0.4" stroke="#404040" stroke-width="1" x1="100" y1="115" x2="1159" y2="115"/>
<line opacity="0.4" stroke="#404040" stroke-width="1" x1="100" y1="105" x2="1159" y2="105"/>
<line opacity="0.4" stroke="#404040" stroke-width="1" x1="100" y1="94" x2="1159" y2="94"/>
<line opacity="0.4" stroke="#404040" stroke-width="1" x1="100" y1="84" x2="1159" y2="84"/>
<line opacity="0.4" stroke="#404040" stroke-width="1" x1="100" y1="73" x2="1159" y2="73"/>
<line opacity="0.4" stroke="#404040" stroke-width="1" x1="100" y1="62" x2="1159" y2="62"/>
<line opacity="0.4" stroke="#404040" stroke-width="1" x1="100" y1="52" x2="1159" y2="52"/>
<line opacity="0.4" stroke="#404040" stroke-width="1" x1="100" y1="41" x2="1159" y2="41"/>
<text x="40" y="225" dy="0.76em" text-anchor="middle" font-family="FiraCode" font-size="12.903225806451614" opacity="1" fill="#DDDDDD" transform="rotate(270, 40, 225)">
Number of benchmarks
</text>
<text x="630" y="460" dy="-0.5ex" text-anchor="middle" font-family="FiraCode" font-size="12.903225806451614" opacity="1" fill="#DDDDDD">
Speedup (log-scale)
</text>
<line opacity="0.6" stroke="#404040" stroke-width="1" x1="100" y1="409" x2="1159" y2="409"/>
<line opacity="0.6" stroke="#404040" stroke-width="1" x1="100" y1="357" x2="1159" y2="357"/>
<line opacity="0.6" stroke="#404040" stroke-width="1" x1="100" y1="304" x2="1159" y2="304"/>
<line opacity="0.6" stroke="#404040" stroke-width="1" x1="100" y1="252" x2="1159" y2="252"/>
<line opacity="0.6" stroke="#404040" stroke-width="1" x1="100" y1="199" x2="1159" y2="199"/>
<line opacity="0.6" stroke="#404040" stroke-width="1" x1="100" y1="147" x2="1159" y2="147"/>
<line opacity="0.6" stroke="#404040" stroke-width="1" x1="100" y1="94" x2="1159" y2="94"/>
<line opacity="0.6" stroke="#404040" stroke-width="1" x1="100" y1="41" x2="1159" y2="41"/>
<polyline fill="none" opacity="1" stroke="#404040" stroke-width="1" points="99,40 99,409 "/>
<text x="90" y="409" dy="0.5ex" text-anchor="end" font-family="FiraCode" font-size="12.903225806451614" opacity="1" fill="#DDDDDD">
0
</text>
<polyline fill="none" opacity="1" stroke="#404040" stroke-width="1" points="94,409 99,409 "/>
<text x="90" y="357" dy="0.5ex" text-anchor="end" font-family="FiraCode" font-size="12.903225806451614" opacity="1" fill="#DDDDDD">
50
</text>
<polyline fill="none" opacity="1" stroke="#404040" stroke-width="1" points="94,357 99,357 "/>
<text x="90" y="304" dy="0.5ex" text-anchor="end" font-family="FiraCode" font-size="12.903225806451614" opacity="1" fill="#DDDDDD">
100
</text>
<polyline fill="none" opacity="1" stroke="#404040" stroke-width="1" points="94,304 99,304 "/>
<text x="90" y="252" dy="0.5ex" text-anchor="end" font-family="FiraCode" font-size="12.903225806451614" opacity="1" fill="#DDDDDD">
150
</text>
<polyline fill="none" opacity="1" stroke="#404040" stroke-width="1" points="94,252 99,252 "/>
<text x="90" y="199" dy="0.5ex" text-anchor="end" font-family="FiraCode" font-size="12.903225806451614" opacity="1" fill="#DDDDDD">
200
</text>
<polyline fill="none" opacity="1" stroke="#404040" stroke-width="1" points="94,199 99,199 "/>
<text x="90" y="147" dy="0.5ex" text-anchor="end" font-family="FiraCode" font-size="12.903225806451614" opacity="1" fill="#DDDDDD">
250
</text>
<polyline fill="none" opacity="1" stroke="#404040" stroke-width="1" points="94,147 99,147 "/>
<text x="90" y="94" dy="0.5ex" text-anchor="end" font-family="FiraCode" font-size="12.903225806451614" opacity="1" fill="#DDDDDD">
300
</text>
<polyline fill="none" opacity="1" stroke="#404040" stroke-width="1" points="94,94 99,94 "/>
<text x="90" y="41" dy="0.5ex" text-anchor="end" font-family="FiraCode" font-size="12.903225806451614" opacity="1" fill="#DDDDDD">
350
</text>
<polyline fill="none" opacity="1" stroke="#404040" stroke-width="1" points="94,41 99,41 "/>
<polyline fill="none" opacity="1" stroke="#404040" stroke-width="1" points="100,410 1159,410 "/>
<text x="100" y="420" dy="0.76em" text-anchor="middle" font-family="FiraCode" font-size="12.903225806451614" opacity="1" fill="#DDDDDD">
1×
</text>
<polyline fill="none" opacity="1" stroke="#404040" stroke-width="1" points="100,410 100,415 "/>
<text x="217" y="420" dy="0.76em" text-anchor="middle" font-family="FiraCode" font-size="12.903225806451614" opacity="1" fill="#DDDDDD">
10×
</text>
<polyline fill="none" opacity="1" stroke="#404040" stroke-width="1" points="217,410 217,415 "/>
<text x="335" y="420" dy="0.76em" text-anchor="middle" font-family="FiraCode" font-size="12.903225806451614" opacity="1" fill="#DDDDDD">
100×
</text>
<polyline fill="none" opacity="1" stroke="#404040" stroke-width="1" points="335,410 335,415 "/>
<text x="453" y="420" dy="0.76em" text-anchor="middle" font-family="FiraCode" font-size="12.903225806451614" opacity="1" fill="#DDDDDD">
1&apos;000×
</text>
<polyline fill="none" opacity="1" stroke="#404040" stroke-width="1" points="453,410 453,415 "/>
<text x="570" y="420" dy="0.76em" text-anchor="middle" font-family="FiraCode" font-size="12.903225806451614" opacity="1" fill="#DDDDDD">
10&apos;000×
</text>
<polyline fill="none" opacity="1" stroke="#404040" stroke-width="1" points="570,410 570,415 "/>
<text x="688" y="420" dy="0.76em" text-anchor="middle" font-family="FiraCode" font-size="12.903225806451614" opacity="1" fill="#DDDDDD">
100&apos;000×
</text>
<polyline fill="none" opacity="1" stroke="#404040" stroke-width="1" points="688,410 688,415 "/>
<text x="806" y="420" dy="0.76em" text-anchor="middle" font-family="FiraCode" font-size="12.903225806451614" opacity="1" fill="#DDDDDD">
1&apos;000&apos;000×
</text>
<polyline fill="none" opacity="1" stroke="#404040" stroke-width="1" points="806,410 806,415 "/>
<text x="923" y="420" dy="0.76em" text-anchor="middle" font-family="FiraCode" font-size="12.903225806451614" opacity="1" fill="#DDDDDD">
10&apos;000&apos;000×
</text>
<polyline fill="none" opacity="1" stroke="#404040" stroke-width="1" points="923,410 923,415 "/>
<text x="1041" y="420" dy="0.76em" text-anchor="middle" font-family="FiraCode" font-size="12.903225806451614" opacity="1" fill="#DDDDDD">
100&apos;000&apos;000×
</text>
<polyline fill="none" opacity="1" stroke="#404040" stroke-width="1" points="1041,410 1041,415 "/>
<text x="1159" y="420" dy="0.76em" text-anchor="middle" font-family="FiraCode" font-size="12.903225806451614" opacity="1" fill="#DDDDDD">

</text>
<polyline fill="none" opacity="1" stroke="#404040" stroke-width="1" points="1159,410 1159,415 "/>
<rect x="100" y="74" width="15" height="335" opacity="1" fill="#BB432C" stroke="none"/>
<rect x="117" y="314" width="16" height="95" opacity="1" fill="#BB432C" stroke="none"/>
<rect x="135" y="330" width="16" height="79" opacity="1" fill="#BB432C" stroke="none"/>
<rect x="152" y="311" width="16" height="98" opacity="1" fill="#BB432C" stroke="none"/>
<rect x="170" y="327" width="16" height="82" opacity="1" fill="#BB432C" stroke="none"/>
<rect x="188" y="345" width="16" height="64" opacity="1" fill="#BB432C" stroke="none"/>
<rect x="205" y="359" width="16" height="50" opacity="1" fill="#BB432C" stroke="none"/>
<rect x="223" y="385" width="16" height="24" opacity="1" fill="#BB432C" stroke="none"/>
<rect x="241" y="382" width="16" height="27" opacity="1" fill="#BB432C" stroke="none"/>
<rect x="258" y="393" width="16" height="16" opacity="1" fill="#BB432C" stroke="none"/>
<rect x="276" y="392" width="16" height="17" opacity="1" fill="#BB432C" stroke="none"/>
<rect x="294" y="403" width="16" height="6" opacity="1" fill="#BB432C" stroke="none"/>
<rect x="311" y="403" width="16" height="6" opacity="1" fill="#BB432C" stroke="none"/>
<rect x="329" y="404" width="16" height="5" opacity="1" fill="#BB432C" stroke="none"/>
<rect x="347" y="398" width="15" height="11" opacity="1" fill="#BB432C" stroke="none"/>
<rect x="364" y="407" width="16" height="2" opacity="1" fill="#BB432C" stroke="none"/>
<rect x="382" y="407" width="16" height="2" opacity="1" fill="#BB432C" stroke="none"/>
<rect x="400" y="407" width="15" height="2" opacity="1" fill="#BB432C" stroke="none"/>
<rect x="417" y="407" width="16" height="2" opacity="1" fill="#BB432C" stroke="none"/>
<rect x="435" y="406" width="16" height="3" opacity="1" fill="#BB432C" stroke="none"/>
<rect x="453" y="409" width="15" height="0" opacity="1" fill="#BB432C" stroke="none"/>
<rect x="470" y="408" width="16" height="1" opacity="1" fill="#BB432C" stroke="none"/>
<rect x="488" y="405" width="16" height="4" opacity="1" fill="#BB432C" stroke="none"/>
<rect x="505" y="408" width="16" height="1" opacity="1" fill="#BB432C" stroke="none"/>
<rect x="523" y="408" width="16" height="1" opacity="1" fill="#BB432C" stroke="none"/>
<rect x="541" y="408" width="16" height="1" opacity="1" fill="#BB432C" stroke="none"/>
<rect x="558" y="408" width="16" height="1" opacity="1" fill="#BB432C" stroke="none"/>
<rect x="576" y="406" width="16" height="3" opacity="1" fill="#BB432C" stroke="none"/>
<rect x="594" y="408" width="16" height="1" opacity="1" fill="#BB432C" stroke="none"/>
<rect x="611" y="409" width="16" height="0" opacity="1" fill="#BB432C" stroke="none"/>
<rect x="629" y="408" width="16" height="1" opacity="1" fill="#BB432C" stroke="none"/>
<rect x="647" y="409" width="16" height="0" opacity="1" fill="#BB432C" stroke="none"/>
<rect x="664" y="409" width="16" height="0" opacity="1" fill="#BB432C" stroke="none"/>
<rect x="682" y="407" width="16" height="2" opacity="1" fill="#BB432C" stroke="none"/>
<rect x="700" y="409" width="15" height="0" opacity="1" fill="#BB432C" stroke="none"/>
<rect x="717" y="409" width="16" height="0" opacity="1" fill="#BB432C" stroke="none"/>
<rect x="735" y="409" width="16" height="0" opacity="1" fill="#BB432C" stroke="none"/>
<rect x="753" y="409" width="15" height="0" opacity="1" fill="#BB432C" stroke="none"/>
<rect x="770" y="408" width="16" height="1" opacity="1" fill="#BB432C" stroke="none"/>
<rect x="788" y="408" width="16" height="1" opacity="1" fill="#BB432C" stroke="none"/>
<rect x="806" y="409" width="15" height="0" opacity="1" fill="#BB432C" stroke="none"/>
<rect x="823" y="408" width="16" height="1" opacity="1" fill="#BB432C" stroke="none"/>
<rect x="841" y="409" width="16" height="0" opacity="1" fill="#BB432C" stroke="none"/>
<rect x="858" y="408" width="16" height="1" opacity="1" fill="#BB432C" stroke="none"/>
<rect x="876" y="408" width="16" height="1" opacity="1" fill="#BB432C" stroke="none"/>
<rect x="894" y="409" width="16" height="0" opacity="1" fill="#BB432C" stroke="none"/>
<rect x="911" y="409" width="16" height="0" opacity="1" fill="#BB432C" stroke="none"/>
<rect x="929" y="408" width="16" height="1" opacity="1" fill="#BB432C" stroke="none"/>
<rect x="947" y="409" width="16" height="0" opacity="1" fill="#BB432C" stroke="none"/>
<rect x="964" y="408" width="16" height="1" opacity="1" fill="#BB432C" stroke="none"/>
<rect x="982" y="409" width="16" height="0" opacity="1" fill="#BB432C" stroke="none"/>
<rect x="1000" y="409" width="16" height="0" opacity="1" fill="#BB432C" stroke="none"/>
<rect x="1017" y="409" width="16" height="0" opacity="1" fill="#BB432C" stroke="none"/>
<rect x="1035" y="408" width="16" height="1" opacity="1" fill="#BB432C" stroke="none"/>
<rect x="1053" y="409" width="15" height="0" opacity="1" fill="#BB432C" stroke="none"/>
<rect x="1070" y="409" width="16" height="0" opacity="1" fill="#BB432C" stroke="none"/>
<rect x="1088" y="409" width="16" height="0" opacity="1" fill="#BB432C" stroke="none"/>
<rect x="1106" y="409" width="15" height="0" opacity="1" fill="#BB432C" stroke="none"/>
<rect x="1123" y="409" width="16" height="0" opacity="1" fill="#BB432C" stroke="none"/>
<rect x="1141" y="409" width="16" height="0" opacity="1" fill="#BB432C" stroke="none"/>
</svg>
