<svg width="1200" height="500" viewBox="0 0 1200 500" xmlns="http://www.w3.org/2000/svg">
<rect x="0" y="0" width="1200" height="500" opacity="1" fill="#222222" stroke="none"/>
<line opacity="0.4" stroke="#404040" stroke-width="1" x1="100" y1="409" x2="1159" y2="409"/>
<line opacity="0.4" stroke="#404040" stroke-width="1" x1="100" y1="399" x2="1159" y2="399"/>
<line opacity="0.4" stroke="#404040" stroke-width="1" x1="100" y1="388" x2="1159" y2="388"/>
<line opacity="0.4" stroke="#404040" stroke-width="1" x1="100" y1="377" x2="1159" y2="377"/>
<line opacity="0.4" stroke="#404040" stroke-width="1" x1="100" y1="366" x2="1159" y2="366"/>
<line opacity="0.4" stroke="#404040" stroke-width="1" x1="100" y1="356" x2="1159" y2="356"/>
<line opacity="0.4" stroke="#404040" stroke-width="1" x1="100" y1="345" x2="1159" y2="345"/>
<line opacity="0.4" stroke="#404040" stroke-width="1" x1="100" y1="334" x2="1159" y2="334"/>
<line opacity="0.4" stroke="#404040" stroke-width="1" x1="100" y1="323" x2="1159" y2="323"/>
<line opacity="0.4" stroke="#404040" stroke-width="1" x1="100" y1="313" x2="1159" y2="313"/>
<line opacity="0.4" stroke="#404040" stroke-width="1" x1="100" y1="302" x2="1159" y2="302"/>
<line opacity="0.4" stroke="#404040" stroke-width="1" x1="100" y1="291" x2="1159" y2="291"/>
<line opacity="0.4" stroke="#404040" stroke-width="1" x1="100" y1="280" x2="1159" y2="280"/>
<line opacity="0.4" stroke="#404040" stroke-width="1" x1="100" y1="270" x2="1159" y2="270"/>
<line opacity="0.4" stroke="#404040" stroke-width="1" x1="100" y1="259" x2="1159" y2="259"/>
<line opacity="0.4" stroke="#404040" stroke-width="1" x1="100" y1="248" x2="1159" y2="248"/>
<line opacity="0.4" stroke="#404040" stroke-width="1" x1="100" y1="237" x2="1159" y2="237"/>
<line opacity="0.4" stroke="#404040" stroke-width="1" x1="100" y1="227" x2="1159" y2="227"/>
<line opacity="0.4" stroke="#404040" stroke-width="1" x1="100" y1="216" x2="1159" y2="216"/>
<line opacity="0.4" stroke="#404040" stroke-width="1" x1="100" y1="205" x2="1159" y2="205"/>
<line opacity="0.4" stroke="#404040" stroke-width="1" x1="100" y1="194" x2="1159" y2="194"/>
<line opacity="0.4" stroke="#404040" stroke-width="1" x1="100" y1="184" x2="1159" y2="184"/>
<line opacity="0.4" stroke="#404040" stroke-width="1" x1="100" y1="173" x2="1159" y2="173"/>
<line opacity="0.4" stroke="#404040" stroke-width="1" x1="100" y1="162" x2="1159" y2="162"/>
<line opacity="0.4" stroke="#404040" stroke-width="1" x1="100" y1="151" x2="1159" y2="151"/>
<line opacity="0.4" stroke="#404040" stroke-width="1" x1="100" y1="141" x2="1159" y2="141"/>
<line opacity="0.4" stroke="#404040" stroke-width="1" x1="100" y1="130" x2="1159" y2="130"/>
<line opacity="0.4" stroke="#404040" stroke-width="1" x1="100" y1="119" x2="1159" y2="119"/>
<line opacity="0.4" stroke="#404040" stroke-width="1" x1="100" y1="108" x2="1159" y2="108"/>
<line opacity="0.4" stroke="#404040" stroke-width="1" x1="100" y1="98" x2="1159" y2="98"/>
<line opacity="0.4" stroke="#404040" stroke-width="1" x1="100" y1="87" x2="1159" y2="87"/>
<line opacity="0.4" stroke="#404040" stroke-width="1" x1="100" y1="76" x2="1159" y2="76"/>
<line opacity="0.4" stroke="#404040" stroke-width="1" x1="100" y1="65" x2="1159" y2="65"/>
<line opacity="0.4" stroke="#404040" stroke-width="1" x1="100" y1="55" x2="1159" y2="55"/>
<line opacity="0.4" stroke="#404040" stroke-width="1" x1="100" y1="44" x2="1159" y2="44"/>
<text x="40" y="225" dy="0.76em" text-anchor="middle" font-family="FiraCode" font-size="12.903225806451614" opacity="1" fill="#DDDDDD" transform="rotate(270, 40, 225)">
Number of benchmarks
</text>
<text x="630" y="460" dy="-0.5ex" text-anchor="middle" font-family="FiraCode" font-size="12.903225806451614" opacity="1" fill="#DDDDDD">
Speedup (log-scale)
</text>
<line opacity="0.6" stroke="#404040" stroke-width="1" x1="100" y1="409" x2="1159" y2="409"/>
<line opacity="0.6" stroke="#404040" stroke-width="1" x1="100" y1="356" x2="1159" y2="356"/>
<line opacity="0.6" stroke="#404040" stroke-width="1" x1="100" y1="302" x2="1159" y2="302"/>
<line opacity="0.6" stroke="#404040" stroke-width="1" x1="100" y1="248" x2="1159" y2="248"/>
<line opacity="0.6" stroke="#404040" stroke-width="1" x1="100" y1="194" x2="1159" y2="194"/>
<line opacity="0.6" stroke="#404040" stroke-width="1" x1="100" y1="141" x2="1159" y2="141"/>
<line opacity="0.6" stroke="#404040" stroke-width="1" x1="100" y1="87" x2="1159" y2="87"/>
<polyline fill="none" opacity="1" stroke="#404040" stroke-width="1" points="99,40 99,409 "/>
<text x="90" y="409" dy="0.5ex" text-anchor="end" font-family="FiraCode" font-size="12.903225806451614" opacity="1" fill="#DDDDDD">
0
</text>
<polyline fill="none" opacity="1" stroke="#404040" stroke-width="1" points="94,409 99,409 "/>
<text x="90" y="356" dy="0.5ex" text-anchor="end" font-family="FiraCode" font-size="12.903225806451614" opacity="1" fill="#DDDDDD">
50
</text>
<polyline fill="none" opacity="1" stroke="#404040" stroke-width="1" points="94,356 99,356 "/>
<text x="90" y="302" dy="0.5ex" text-anchor="end" font-family="FiraCode" font-size="12.903225806451614" opacity="1" fill="#DDDDDD">
100
</text>
<polyline fill="none" opacity="1" stroke="#404040" stroke-width="1" points="94,302 99,302 "/>
<text x="90" y="248" dy="0.5ex" text-anchor="end" font-family="FiraCode" font-size="12.903225806451614" opacity="1" fill="#DDDDDD">
150
</text>
<polyline fill="none" opacity="1" stroke="#404040" stroke-width="1" points="94,248 99,248 "/>
<text x="90" y="194" dy="0.5ex" text-anchor="end" font-family="FiraCode" font-size="12.903225806451614" opacity="1" fill="#DDDDDD">
200
</text>
<polyline fill="none" opacity="1" stroke="#404040" stroke-width="1" points="94,194 99,194 "/>
<text x="90" y="141" dy="0.5ex" text-anchor="end" font-family="FiraCode" font-size="12.903225806451614" opacity="1" fill="#DDDDDD">
250
</text>
<polyline fill="none" opacity="1" stroke="#404040" stroke-width="1" points="94,141 99,141 "/>
<text x="90" y="87" dy="0.5ex" text-anchor="end" font-family="FiraCode" font-size="12.903225806451614" opacity="1" fill="#DDDDDD">
300
</text>
<polyline fill="none" opacity="1" stroke="#404040" stroke-width="1" points="94,87 99,87 "/>
<polyline fill="none" opacity="1" stroke="#404040" stroke-width="1" points="100,410 1159,410 "/>
<text x="100" y="420" dy="0.76em" text-anchor="middle" font-family="FiraCode" font-size="12.903225806451614" opacity="1" fill="#DDDDDD">
1×
</text>
<polyline fill="none" opacity="1" stroke="#404040" stroke-width="1" points="100,410 100,415 "/>
<text x="217" y="420" dy="0.76em" text-anchor="middle" font-family="FiraCode" font-size="12.903225806451614" opacity="1" fill="#DDDDDD">
10×
</text>
<polyline fill="none" opacity="1" stroke="#404040" stroke-width="1" points="217,410 217,415 "/>
<text x="335" y="420" dy="0.76em" text-anchor="middle" font-family="FiraCode" font-size="12.903225806451614" opacity="1" fill="#DDDDDD">
100×
</text>
<polyline fill="none" opacity="1" stroke="#404040" stroke-width="1" points="335,410 335,415 "/>
<text x="453" y="420" dy="0.76em" text-anchor="middle" font-family="FiraCode" font-size="12.903225806451614" opacity="1" fill="#DDDDDD">
1&apos;000×
</text>
<polyline fill="none" opacity="1" stroke="#404040" stroke-width="1" points="453,410 453,415 "/>
<text x="570" y="420" dy="0.76em" text-anchor="middle" font-family="FiraCode" font-size="12.903225806451614" opacity="1" fill="#DDDDDD">
10&apos;000×
</text>
<polyline fill="none" opacity="1" stroke="#404040" stroke-width="1" points="570,410 570,415 "/>
<text x="688" y="420" dy="0.76em" text-anchor="middle" font-family="FiraCode" font-size="12.903225806451614" opacity="1" fill="#DDDDDD">
100&apos;000×
</text>
<polyline fill="none" opacity="1" stroke="#404040" stroke-width="1" points="688,410 688,415 "/>
<text x="806" y="420" dy="0.76em" text-anchor="middle" font-family="FiraCode" font-size="12.903225806451614" opacity="1" fill="#DDDDDD">
1&apos;000&apos;000×
</text>
<polyline fill="none" opacity="1" stroke="#404040" stroke-width="1" points="806,410 806,415 "/>
<text x="923" y="420" dy="0.76em" text-anchor="middle" font-family="FiraCode" font-size="12.903225806451614" opacity="1" fill="#DDDDDD">
10&apos;000&apos;000×
</text>
<polyline fill="none" opacity="1" stroke="#404040" stroke-width="1" points="923,410 923,415 "/>
<text x="1041" y="420" dy="0.76em" text-anchor="middle" font-family="FiraCode" font-size="12.903225806451614" opacity="1" fill="#DDDDDD">
100&apos;000&apos;000×
</text>
<polyline fill="none" opacity="1" stroke="#404040" stroke-width="1" points="1041,410 1041,415 "/>
<text x="1159" y="420" dy="0.76em" text-anchor="middle" font-family="FiraCode" font-size="12.903225806451614" opacity="1" fill="#DDDDDD">

</text>
<polyline fill="none" opacity="1" stroke="#404040" stroke-width="1" points="1159,410 1159,415 "/>
<rect x="100" y="74" width="15" height="335" opacity="1" fill="#BB432C" stroke="none"/>
<rect x="117" y="317" width="16" height="92" opacity="1" fill="#BB432C" stroke="none"/>
<rect x="135" y="320" width="16" height="89" opacity="1" fill="#BB432C" stroke="none"/>
<rect x="152" y="316" width="16" height="93" opacity="1" fill="#BB432C" stroke="none"/>
<rect x="170" y="327" width="16" height="82" opacity="1" fill="#BB432C" stroke="none"/>
<rect x="188" y="348" width="16" height="61" opacity="1" fill="#BB432C" stroke="none"/>
<rect x="205" y="355" width="16" height="54" opacity="1" fill="#BB432C" stroke="none"/>
<rect x="223" y="380" width="16" height="29" opacity="1" fill="#BB432C" stroke="none"/>
<rect x="241" y="379" width="16" height="30" opacity="1" fill="#BB432C" stroke="none"/>
<rect x="258" y="393" width="16" height="16" opacity="1" fill="#BB432C" stroke="none"/>
<rect x="276" y="388" width="16" height="21" opacity="1" fill="#BB432C" stroke="none"/>
<rect x="294" y="400" width="16" height="9" opacity="1" fill="#BB432C" stroke="none"/>
<rect x="311" y="404" width="16" height="5" opacity="1" fill="#BB432C" stroke="none"/>
<rect x="329" y="400" width="16" height="9" opacity="1" fill="#BB432C" stroke="none"/>
<rect x="347" y="402" width="15" height="7" opacity="1" fill="#BB432C" stroke="none"/>
<rect x="364" y="406" width="16" height="3" opacity="1" fill="#BB432C" stroke="none"/>
<rect x="382" y="407" width="16" height="2" opacity="1" fill="#BB432C" stroke="none"/>
<rect x="400" y="406" width="15" height="3" opacity="1" fill="#BB432C" stroke="none"/>
<rect x="417" y="406" width="16" height="3" opacity="1" fill="#BB432C" stroke="none"/>
<rect x="435" y="407" width="16" height="2" opacity="1" fill="#BB432C" stroke="none"/>
<rect x="453" y="408" width="15" height="1" opacity="1" fill="#BB432C" stroke="none"/>
<rect x="470" y="407" width="16" height="2" opacity="1" fill="#BB432C" stroke="none"/>
<rect x="488" y="406" width="16" height="3" opacity="1" fill="#BB432C" stroke="none"/>
<rect x="505" y="407" width="16" height="2" opacity="1" fill="#BB432C" stroke="none"/>
<rect x="523" y="408" width="16" height="1" opacity="1" fill="#BB432C" stroke="none"/>
<rect x="541" y="409" width="16" height="0" opacity="1" fill="#BB432C" stroke="none"/>
<rect x="558" y="408" width="16" height="1" opacity="1" fill="#BB432C" stroke="none"/>
<rect x="576" y="407" width="16" height="2" opacity="1" fill="#BB432C" stroke="none"/>
<rect x="594" y="407" width="16" height="2" opacity="1" fill="#BB432C" stroke="none"/>
<rect x="611" y="409" width="16" height="0" opacity="1" fill="#BB432C" stroke="none"/>
<rect x="629" y="409" width="16" height="0" opacity="1" fill="#BB432C" stroke="none"/>
<rect x="647" y="408" width="16" height="1" opacity="1" fill="#BB432C" stroke="none"/>
<rect x="664" y="409" width="16" height="0" opacity="1" fill="#BB432C" stroke="none"/>
<rect x="682" y="407" width="16" height="2" opacity="1" fill="#BB432C" stroke="none"/>
<rect x="700" y="409" width="15" height="0" opacity="1" fill="#BB432C" stroke="none"/>
<rect x="717" y="409" width="16" height="0" opacity="1" fill="#BB432C" stroke="none"/>
<rect x="735" y="409" width="16" height="0" opacity="1" fill="#BB432C" stroke="none"/>
<rect x="753" y="409" width="15" height="0" opacity="1" fill="#BB432C" stroke="none"/>
<rect x="770" y="408" width="16" height="1" opacity="1" fill="#BB432C" stroke="none"/>
<rect x="788" y="409" width="16" height="0" opacity="1" fill="#BB432C" stroke="none"/>
<rect x="806" y="408" width="15" height="1" opacity="1" fill="#BB432C" stroke="none"/>
<rect x="823" y="409" width="16" height="0" opacity="1" fill="#BB432C" stroke="none"/>
<rect x="841" y="408" width="16" height="1" opacity="1" fill="#BB432C" stroke="none"/>
<rect x="858" y="409" width="16" height="0" opacity="1" fill="#BB432C" stroke="none"/>
<rect x="876" y="409" width="16" height="0" opacity="1" fill="#BB432C" stroke="none"/>
<rect x="894" y="408" width="16" height="1" opacity="1" fill="#BB432C" stroke="none"/>
<rect x="911" y="408" width="16" height="1" opacity="1" fill="#BB432C" stroke="none"/>
<rect x="929" y="408" width="16" height="1" opacity="1" fill="#BB432C" stroke="none"/>
<rect x="947" y="409" width="16" height="0" opacity="1" fill="#BB432C" stroke="none"/>
<rect x="964" y="408" width="16" height="1" opacity="1" fill="#BB432C" stroke="none"/>
<rect x="982" y="409" width="16" height="0" opacity="1" fill="#BB432C" stroke="none"/>
<rect x="1000" y="409" width="16" height="0" opacity="1" fill="#BB432C" stroke="none"/>
<rect x="1017" y="409" width="16" height="0" opacity="1" fill="#BB432C" stroke="none"/>
<rect x="1035" y="408" width="16" height="1" opacity="1" fill="#BB432C" stroke="none"/>
<rect x="1053" y="409" width="15" height="0" opacity="1" fill="#BB432C" stroke="none"/>
<rect x="1070" y="409" width="16" height="0" opacity="1" fill="#BB432C" stroke="none"/>
<rect x="1088" y="409" width="16" height="0" opacity="1" fill="#BB432C" stroke="none"/>
<rect x="1106" y="409" width="15" height="0" opacity="1" fill="#BB432C" stroke="none"/>
<rect x="1123" y="409" width="16" height="0" opacity="1" fill="#BB432C" stroke="none"/>
<rect x="1141" y="409" width="16" height="0" opacity="1" fill="#BB432C" stroke="none"/>
</svg>
